HIERARCHY
ROOT Hips
{
	OFFSET 0.00000 0.00000 0.00000
	CHANNELS 6 Xposition Yposition Zposition Yrotation Zrotation Xrotation 
	JOINT Lumbar
	{
		OFFSET 0 0 0
		CHANNELS 3 Zrotation Xrotation Yrotation
		JOINT Neck
		{
			OFFSET 0.00 0.2701 0.00
			CHANNELS 3 Zrotation Xrotation Yrotation
			End Site
			{
				OFFSET 0.00 0.1379 0.00
			}
		}
		JOINT RightShoulder
		{
			OFFSET 0.0119 0.2289 0.1181
			CHANNELS 3 Zrotation Xrotation Yrotation
			JOINT RightElbow
			{
				OFFSET 0.00 -0.1475 0.00
				CHANNELS 2 Zrotation Yrotation
				JOINT RightWrist
				{
					OFFSET 0.00 -0.1605 0.00
					CHANNELS 2 Zrotation Xrotation
					End Site
					{
						OFFSET 0.0040 -0.1068 0.0006
					}
				}
			}
		}
		JOINT LeftShoulder
		{
			OFFSET 0.0119 0.2289 -0.1181
			CHANNELS 3 Zrotation Xrotation Yrotation
			JOINT LeftElbow
			{
				OFFSET 0.00 -0.1475 0.00
				CHANNELS 2 Zrotation Yrotation
				JOINT LeftWrist
				{
					OFFSET 0.00 -0.1605 0.00
					CHANNELS 2 Zrotation Xrotation
					End Site
					{
						OFFSET 0.0040 -0.1068 -0.0006
					}
				}
			}
		}
	}
	JOINT RightHip
	{
		OFFSET 0.0316 -0.0424 0.0458
		CHANNELS 3 Zrotation Xrotation Yrotation
		JOINT RightKnee
		{
			OFFSET 0.00 -0.2438 0.00
			CHANNELS 1 Zrotation
			JOINT RightAnkle
			{
				OFFSET 0.00 -0.2449 0.00
				CHANNELS 3 Zrotation Xrotation Yrotation
				End Site
				{
					OFFSET 0.1237 -0.0542 0.0051
				}
			}
		}
	}
	JOINT LeftHip
	{
		OFFSET 0.0316 -0.0424 -0.0458
		CHANNELS 3 Zrotation Xrotation Yrotation
		JOINT LeftKnee
		{
			OFFSET 0.00 -0.2438 0.00
			CHANNELS 1 Zrotation
			JOINT LeftAnkle
			{
				OFFSET 0.00 -0.2449 0.00
				CHANNELS 3 Zrotation Xrotation Yrotation
				End Site
				{
					OFFSET 0.1237 -0.0542 -0.0051
				}
			}
		}
	}
}
MOTION
Frames: 35
Frame Time: 0.02
-1.85498 0.59631 0.61835 518.05428 0 -5.38941 3.76386 2.18199 -2.62464 -31.7365 4.27813 2.19289 38.30443 -39.31826 -4.81525 21.9274 106.05715 -19.22379 -8.36775 23.77941 10.91135 -11.87437 7.71656 -82.80046 0.54826 0.86161 4.37966 0.17998 2.27852 -17.72604 -15.83293 -1.28103 -14.73101 -5.3954 2.85813 13.16649 -2.37411 -5.44778 3.1975 6.44113
-1.8525 0.5964 0.62018 517.44233 0 -5.47368 3.11618 2.33037 -2.531 -31.31798 4.26547 2.21804 36.07878 -36.58575 -1.60054 20.36677 102.87603 -16.72376 -8.11928 23.35133 10.95772 -12.08863 7.74947 -82.79204 0.49142 0.85241 5.35391 0.4073 3.33531 -18.72755 -16.19144 -1.2091 -14.99776 -5.31759 2.80703 13.52338 -2.11495 -5.62172 3.19979 6.60022
-1.84975 0.59654 0.62206 516.7815 0 -5.59304 2.39003 2.49141 -2.4609 -30.73853 4.26147 2.27211 33.73502 -33.86286 2.09387 18.65925 98.47806 -14.02574 -7.65569 22.87294 11.02242 -12.20378 7.82446 -82.75138 0.40051 0.86416 6.39847 0.71208 4.53021 -19.78142 -16.63319 -1.1361 -15.27141 -5.27405 2.78432 13.90351 -1.74355 -5.84686 3.1998 6.7778
-1.84712 0.59666 0.62392 516.14755 0 -5.70177 1.69117 2.64991 -2.38404 -30.21658 4.27302 2.30177 31.42791 -31.16466 5.5532 17.04601 94.73629 -11.44936 -7.27629 22.40531 11.06622 -12.35728 7.88424 -82.72564 0.32701 0.87059 7.38006 0.97741 5.6523 -20.75351 -17.04319 -1.06129 -15.52466 -5.21319 2.75401 14.27565 -1.4237 -6.04539 3.19987 6.94291
-1.84451 0.59675 0.62576 515.49276 0 -5.7887 1.02428 2.79654 -2.28658 -29.75207 4.2048 2.38076 29.19146 -28.33622 9.11235 15.30319 90.53171 -8.70513 -6.94963 21.98429 11.15992 -12.54233 7.92963 -82.69934 0.24554 0.86053 8.4995 1.26159 6.82871 -21.97991 -17.43041 -0.99381 -15.85715 -5.15757 2.70086 14.63678 -1.10395 -6.25894 3.20398 7.12712
-1.8418 0.59692 0.62767 514.86732 0 -5.92858 0.27386 2.96892 -2.24117 -29.13664 4.30465 2.36516 26.78543 -25.79055 12.55782 13.80137 87.01215 -6.27922 -6.46676 21.45897 11.15392 -12.6352 8.0137 -82.6661 0.1724 0.88916 9.34446 1.52358 7.91453 -22.68186 -17.88276 -0.91309 -16.0195 -5.09973 2.70164 15.02871 -0.75733 -6.45176 3.19953 7.27571
-1.83889 0.59732 0.62973 514.36932 0 -6.21271 -0.69183 3.22523 -2.30954 -28.10023 4.85588 2.05842 23.87793 -23.94757 15.68254 12.99113 85.68761 -4.74854 -5.56796 20.62186 10.88481 -12.51705 8.19936 -82.62436 0.13197 1.02102 9.432 1.71789 8.78846 -21.97025 -18.50415 -0.77892 -15.76643 -5.03101 2.85141 15.47137 -0.35245 -6.59083 3.16724 7.31623
-1.8359 0.59779 0.63186 513.89603 0 -6.5476 -1.73698 3.50377 -2.43464 -26.92721 5.577 1.66031 20.81619 -22.40424 18.65249 12.43239 85.09762 -3.55513 -4.52623 19.68922 10.5124 -12.30497 8.42083 -82.57617 0.10091 1.1904 9.2374 1.88529 9.55371 -20.7224 -19.18451 -0.63456 -15.33361 -4.95877 3.05331 15.94892 0.07403 -6.70472 3.12717 7.3216
-1.83295 0.59822 0.63396 513.39036 0 -6.85504 -2.74382 3.76199 -2.54932 -25.8448 6.22739 1.31696 17.86329 -20.77196 21.61931 11.76639 84.17113 -2.23334 -3.57487 18.82311 10.17694 -12.12403 8.62294 -82.52914 0.06458 1.34178 9.15883 2.05627 10.31884 -19.68437 -19.83344 -0.50653 -14.94306 -4.88581 3.22694 16.42937 0.48347 -6.81926 3.09378 7.34519
-1.82999 0.59868 0.63607 512.97507 0 -7.18257 -3.76593 4.06483 -2.59824 -24.63245 6.85265 0.91409 14.73691 -18.93569 24.91636 11.0642 83.21175 -0.80047 -2.50983 17.8543 9.88389 -11.99158 8.84152 -82.4886 0.03106 1.49896 9.13185 2.26474 11.29188 -18.77898 -20.51165 -0.32997 -14.70939 -4.82282 3.42096 16.83283 0.92691 -6.97967 3.04729 7.35702
-1.82703 0.59909 0.63817 512.37445 0 -7.4794 -4.77008 4.27852 -2.79945 -23.66517 7.56815 0.61902 11.94413 -17.60148 27.47873 10.50048 82.51283 0.32012 -1.64899 17.08155 9.47819 -11.73312 9.03131 -82.43327 -0.0053 1.65137 8.9325 2.38991 11.81179 -17.48471 -21.13324 -0.25097 -14.1185 -4.73899 3.58438 17.40291 1.30366 -7.03973 3.02598 7.3885
-1.82406 0.59932 0.64028 511.28736 0 -7.68253 -5.73783 4.25216 -3.38751 -23.36757 8.51053 0.59109 10.04939 -17.52742 28.07693 10.24714 82.34712 0.64045 -1.40118 16.83828 8.78403 -11.1808 9.15375 -82.33998 -0.05477 1.79269 8.29901 2.27175 11.03744 -15.11529 -21.65776 -0.45363 -12.47966 -4.58829 3.6516 18.43948 1.4865 -6.81326 3.0784 7.44982
-1.82111 0.59949 0.64238 510.00761 0 -7.85207 -6.67763 4.1334 -4.12929 -23.32906 9.53387 0.68304 8.50863 -17.95742 27.93241 10.12717 82.4253 0.65966 -1.36264 16.80239 7.98127 -10.49733 9.24207 -82.23186 -0.10689 1.92582 7.50611 2.07356 9.82052 -12.39798 -22.10973 -0.75301 -10.50752 -4.41847 3.6858 19.63979 1.60156 -6.48971 3.15587 7.53772
-1.81818 0.59969 0.64445 508.79534 0 -8.03469 -7.60922 4.04889 -4.81505 -23.20011 10.50786 0.75657 6.84507 -18.19214 28.10949 9.95386 82.40251 0.83058 -1.2196 16.69506 7.22893 -9.85683 9.33182 -82.12994 -0.15542 2.05501 6.80418 1.92529 8.85441 -9.9259 -22.54536 -1.00171 -8.75672 -4.2639 3.73438 20.75498 1.7503 -6.2201 3.22059 7.63561
-1.81513 0.5999 0.64667 507.66734 0 -8.22882 -8.63449 3.99658 -5.44918 -22.95361 11.54216 0.68085 5.01135 -18.29745 28.3538 9.75873 82.36396 0.9321 -1.10953 16.48839 6.46533 -9.29245 9.48144 -82.03038 -0.21291 2.21733 6.01584 1.72087 7.68543 -7.06521 -23.18867 -1.27847 -6.70332 -4.08155 3.78777 21.91587 1.88858 -5.90663 3.29142 7.64107
-1.81233 0.60006 0.64857 506.31941 0 -8.38969 -9.45375 3.85659 -6.2206 -23.012 12.46614 0.93792 3.62311 -18.78459 28.27732 9.63723 82.40538 1.1048 -0.98435 16.53875 5.70473 -8.52802 9.49885 -81.92207 -0.25347 2.30889 5.3713 1.6123 6.82204 -4.94092 -23.38471 -1.51986 -5.20509 -3.95257 3.82221 23.02092 2.03117 -5.66374 3.35482 7.84335
-1.81016 0.60013 0.64964 504.39716 0 -8.47192 -9.73727 3.48324 -7.38476 -23.87868 13.07871 2.15189 3.3384 -20.23113 27.55087 9.6883 82.6182 1.60217 -0.75135 17.25315 4.94577 -7.34853 9.15083 -81.79696 -0.23825 2.20169 5.18047 1.80833 7.02421 -4.91406 -22.33428 -1.64014 -5.30701 -3.9756 3.81543 23.92328 2.21105 -5.62202 3.39823 8.60411
-1.80825 0.60015 0.6504 502.26298 0 -8.52053 -9.8089 3.02751 -8.67179 -25.03857 13.57372 3.68469 3.49879 -22.03719 26.51819 9.80787 82.89766 2.17302 -0.50008 18.2191 4.20068 -5.95714 8.67292 -81.66313 -0.20746 2.02476 5.13754 2.09962 7.52827 -5.64568 -20.84151 -1.72151 -5.98187 -4.053 3.78987 24.76492 2.39566 -5.65761 3.43215 9.55826
-1.80626 0.60019 0.65127 500.2347 0 -8.58116 -9.96014 2.61826 -9.86882 -26.04524 14.11374 5.02762 3.4815 -23.65924 25.59051 9.89282 83.13623 2.67626 -0.26692 19.06649 3.47109 -4.58908 8.25934 -81.53057 -0.18939 1.88262 5.01728 2.33441 7.82057 -6.04818 -19.56986 -1.82055 -6.40589 -4.10562 3.77065 25.64004 2.57247 -5.67 3.46602 10.40986
-1.80413 0.60024 0.65226 498.15827 0 -8.65492 -10.18172 2.16691 -11.216 -27.14457 14.69408 6.56389 3.36959 -25.38841 24.77962 9.99482 83.42829 3.31344 0.00298 19.93701 2.64409 -3.50779 7.82001 -81.40789 -0.14777 1.72558 4.93574 2.62332 8.41321 -6.37755 -18.21028 -1.92291 -6.78148 -4.15806 3.75962 26.49717 2.77161 -5.63053 3.519 11.32398
-1.80234 0.60025 0.65293 496.13553 0 -8.69313 -10.20583 1.78578 -12.27696 -28.11792 15.15912 7.77247 3.55966 -26.97037 23.66426 10.07891 83.62178 3.69279 0.20024 20.81884 2.02658 -1.80151 7.40667 -81.26397 -0.15126 1.58505 4.80856 2.82172 8.45643 -7.03755 -16.93048 -2.00797 -7.39391 -4.22383 3.72745 27.37382 2.92522 -5.71627 3.52985 12.15381
-1.8014 0.60019 0.65287 494.3037 0 -8.64696 -9.74511 1.61134 -12.5221 -28.66397 15.35418 7.99075 4.44145 -28.08015 21.7756 10.07009 83.52295 3.34601 0.2199 21.64847 1.96844 1.75561 7.07375 -81.05314 -0.285 1.4906 4.54027 2.76018 6.92327 -8.48266 -15.97414 -2.0533 -8.56053 -4.31484 3.6422 28.33022 2.96105 -6.15054 3.4242 12.70054
-1.80079 0.60008 0.6525 492.53609 0 -8.56528 -9.09178 1.51214 -12.47345 -29.07312 15.43358 7.86942 5.61631 -29.02308 19.59958 10.04566 83.32264 2.73789 0.16162 22.48363 2.12375 5.89928 6.77623 -80.8233 -0.46426 1.41827 4.21832 2.60262 4.82736 -10.22523 -15.11543 -2.08222 -9.93983 -4.41714 3.53654 29.30536 2.94958 -6.70475 3.27675 13.15618
-1.80003 0.59999 0.65225 490.74585 0 -8.49639 -8.52074 1.38392 -12.55538 -29.5489 15.55212 7.90739 6.6769 -30.02469 17.55957 10.04458 83.16919 2.24867 0.12223 23.32986 2.19275 9.65955 6.47749 -80.609 -0.62151 1.34676 3.90732 2.48018 2.98041 -11.79578 -14.21473 -2.11929 -11.19704 -4.51326 3.43971 30.26406 2.95407 -7.1901 3.15005 13.65543
-1.7993 0.59991 0.65208 488.91967 0 -8.44048 -7.96325 1.23132 -12.65361 -30.01706 15.72159 7.93406 7.67302 -31.10983 15.47184 9.97534 83.01254 1.76192 0.15368 24.12861 2.21871 13.92639 6.11034 -80.36506 -0.78404 1.22706 3.65612 2.39521 1.16794 -13.54867 -13.28535 -2.15265 -12.58161 -4.61582 3.34336 31.25471 2.98186 -7.73804 3.01593 14.15224
-1.79856 0.5998 0.65167 487.18733 0 -8.34946 -7.33602 1.14795 -12.64707 -30.46394 15.76116 7.90136 8.86765 -31.9788 13.4365 10.04599 82.84077 1.20622 0.01818 25.02306 2.38273 17.26734 5.89713 -80.17869 -0.94631 1.21373 3.26822 2.21039 -0.84833 -14.98184 -12.44863 -2.1897 -13.74376 -4.70678 3.24233 32.18341 2.95006 -8.18389 2.88707 14.62981
-1.79779 0.59965 0.65068 485.69323 0 -8.17084 -6.55211 1.24228 -12.41779 -30.89084 15.45224 7.76927 10.53235 -32.26939 11.47134 10.4846 82.62985 0.5298 -0.55265 26.18964 2.89431 17.96917 6.08962 -80.15415 -1.0991 1.4908 2.4938 1.75425 -3.33662 -15.46141 -11.81164 -2.24681 -14.23857 -4.76392 3.12573 32.94107 2.76359 -8.31172 2.78642 15.07636
-1.79697 0.59948 0.64946 484.29436 0 -7.95802 -5.70801 1.4031 -12.09399 -31.29876 15.02041 7.59082 12.38558 -32.34997 9.59711 11.06828 82.41513 -0.20927 -1.28955 27.44951 3.53406 17.70705 6.43844 -80.18861 -1.24966 1.87429 1.58702 1.20432 -6.00218 -15.60419 -11.27233 -2.30743 -14.49921 -4.8085 3.00671 33.63465 2.51919 -8.33377 2.69195 15.50543
-1.79612 0.59931 0.64835 482.85519 0 -7.76074 -4.89971 1.53075 -11.81574 -31.71012 14.65744 7.44431 14.15448 -32.54014 7.77828 11.59977 82.21113 -0.92263 -1.95548 28.65914 4.10279 17.84436 6.72347 -80.19725 -1.39979 2.20787 0.75472 0.70906 -8.55871 -15.8968 -10.71223 -2.36264 -14.86535 -4.85795 2.89384 34.3555 2.30227 -8.40804 2.59234 15.94203
-1.79554 0.59915 0.64724 481.40171 0 -7.56272 -4.04821 1.67378 -11.5146 -32.13793 14.23595 7.24092 15.92847 -32.66719 5.54235 12.07293 81.94875 -1.62981 -2.60734 29.90154 4.73248 18.16299 6.97922 -80.2009 -1.5577 2.54809 -0.13964 0.15854 -11.25948 -16.21638 -10.05743 -2.43282 -15.24456 -4.91153 2.75868 35.08696 2.0784 -8.46814 2.50089 16.37859
-1.79435 0.59898 0.64606 480.00467 0 -7.35792 -3.27579 1.79919 -11.24474 -32.5298 13.90807 7.14854 17.73242 -32.87521 4.1987 12.70199 81.82962 -2.36585 -3.32416 31.0986 5.26339 17.8704 7.33238 -80.22937 -1.69817 2.90023 -0.93577 -0.29655 -13.68883 -16.39272 -9.6196 -2.47357 -15.53632 -4.95316 2.66994 35.77817 1.85643 -8.53215 2.39475 16.81063
-1.79156 0.59879 0.64476 478.69927 0 -7.14942 -2.73055 1.86323 -11.06634 -32.81845 13.87509 7.38284 19.57321 -33.38203 5.31533 13.72761 81.92031 -3.12602 -4.20269 32.13945 5.48389 16.09672 7.91829 -80.31046 -1.79176 3.25281 -1.42542 -0.47598 -15.37157 -16.28032 -9.77681 -2.42639 -15.65699 -4.96645 2.7083 36.39665 1.6491 -8.62286 2.24415 17.24835
-1.78813 0.59859 0.64338 477.45492 0 -6.93458 -2.26921 1.90652 -10.92743 -33.07417 13.9402 7.73066 21.43566 -33.97404 7.32466 14.90438 82.1868 -3.91879 -5.1359 33.13266 5.60019 13.74432 8.59613 -80.41475 -1.86744 3.61478 -1.81174 -0.55331 -16.76298 -16.02969 -10.14493 -2.35062 -15.69417 -4.96771 2.79442 36.97245 1.44671 -8.7223 2.07926 17.67991
-1.78495 0.59839 0.64202 476.20891 0 -6.718 -1.77412 1.9562 -10.78389 -33.35086 13.95654 8.02223 23.28706 -34.51212 8.91476 16.01167 82.50062 -4.72238 -6.02897 34.15332 5.76787 11.67215 9.23061 -80.50959 -1.9507 3.9766 -2.24721 -0.67026 -18.25539 -15.82419 -10.40297 -2.29189 -15.75983 -4.9735 2.85916 37.5528 1.24558 -8.82377 1.92261 18.1057
-1.78196 0.59822 0.64071 474.85536 0 -6.51822 -1.25768 2.01977 -10.58105 -33.60011 13.98529 8.331 25.15206 -35.10662 10.5656 17.1295 82.29294 -5.42218 -6.99355 35.15381 5.92515 9.49124 9.87792 -80.60228 -2.0366 4.32486 -2.67886 -0.82055 -19.8894 -15.67999 -10.72432 -2.21631 -15.85734 -4.98313 2.92019 38.19372 1.02805 -8.89669 1.75852 18.56725
